<svg width="12" height="12" viewBox="0 0 12 12" fill="none" xmlns="http://www.w3.org/2000/svg">
  <path d="M8.49997 4.58485C8.40629 4.49172 8.27957 4.43945 8.14747 4.43945C8.01538 4.43945 7.88866 4.49172 7.79497 4.58485L5.99997 6.35485L4.22997 4.58485C4.13629 4.49172 4.00957 4.43945 3.87747 4.43945C3.74538 4.43945 3.61866 4.49172 3.52497 4.58485C3.47811 4.63133 3.44091 4.68663 3.41553 4.74756C3.39014 4.80849 3.37708 4.87384 3.37708 4.93985C3.37708 5.00586 3.39014 5.07121 3.41553 5.13214C3.44091 5.19307 3.47811 5.24837 3.52497 5.29485L5.64497 7.41485C5.69146 7.46171 5.74676 7.49891 5.80769 7.52429C5.86862 7.54968 5.93397 7.56275 5.99997 7.56275C6.06598 7.56275 6.13133 7.54968 6.19226 7.52429C6.25319 7.49891 6.30849 7.46171 6.35497 7.41485L8.49997 5.29485C8.54684 5.24837 8.58404 5.19307 8.60942 5.13214C8.6348 5.07121 8.64787 5.00586 8.64787 4.93985C8.64787 4.87384 8.6348 4.80849 8.60942 4.74756C8.58404 4.68663 8.54684 4.63133 8.49997 4.58485Z" fill="#828282"/>
</svg>