<svg width="16" height="16" viewBox="0 0 16 16" fill="none" xmlns="http://www.w3.org/2000/svg">
<path d="M8.66671 10.6665H4.66671C4.4899 10.6665 4.32033 10.7368 4.19531 10.8618C4.07028 10.9868 4.00005 11.1564 4.00005 11.3332C4.00005 11.51 4.07028 11.6796 4.19531 11.8046C4.32033 11.9296 4.4899 11.9999 4.66671 11.9999H8.66671C8.84352 11.9999 9.01309 11.9296 9.13812 11.8046C9.26314 11.6796 9.33338 11.51 9.33338 11.3332C9.33338 11.1564 9.26314 10.9868 9.13812 10.8618C9.01309 10.7368 8.84352 10.6665 8.66671 10.6665ZM6.00005 6.66655H7.33338C7.51019 6.66655 7.67976 6.59631 7.80478 6.47129C7.92981 6.34626 8.00005 6.17669 8.00005 5.99988C8.00005 5.82307 7.92981 5.6535 7.80478 5.52848C7.67976 5.40345 7.51019 5.33322 7.33338 5.33322H6.00005C5.82324 5.33322 5.65367 5.40345 5.52864 5.52848C5.40362 5.6535 5.33338 5.82307 5.33338 5.99988C5.33338 6.17669 5.40362 6.34626 5.52864 6.47129C5.65367 6.59631 5.82324 6.66655 6.00005 6.66655ZM14 7.99988H12V1.99988C12.0005 1.88241 11.9699 1.7669 11.9114 1.66505C11.8529 1.56319 11.7684 1.47862 11.6667 1.41988C11.5654 1.36137 11.4504 1.33057 11.3334 1.33057C11.2164 1.33057 11.1014 1.36137 11 1.41988L9.00005 2.56655L7.00005 1.41988C6.8987 1.36137 6.78374 1.33057 6.66671 1.33057C6.54969 1.33057 6.43473 1.36137 6.33338 1.41988L4.33338 2.56655L2.33338 1.41988C2.23203 1.36137 2.11707 1.33057 2.00005 1.33057C1.88302 1.33057 1.76806 1.36137 1.66671 1.41988C1.56498 1.47862 1.48057 1.56319 1.42203 1.66505C1.3635 1.7669 1.33291 1.88241 1.33338 1.99988V12.6665C1.33338 13.197 1.54409 13.7057 1.91917 14.0808C2.29424 14.4558 2.80295 14.6665 3.33338 14.6665H12.6667C13.1971 14.6665 13.7059 14.4558 14.0809 14.0808C14.456 13.7057 14.6667 13.197 14.6667 12.6665V8.66655C14.6667 8.48974 14.5965 8.32017 14.4715 8.19515C14.3464 8.07012 14.1769 7.99988 14 7.99988ZM3.33338 13.3332C3.15657 13.3332 2.987 13.263 2.86197 13.138C2.73695 13.0129 2.66671 12.8434 2.66671 12.6665V3.15322L4.00005 3.91322C4.10294 3.96696 4.2173 3.99502 4.33338 3.99502C4.44946 3.99502 4.56382 3.96696 4.66671 3.91322L6.66671 2.76655L8.66671 3.91322C8.7696 3.96696 8.88396 3.99502 9.00005 3.99502C9.11613 3.99502 9.23049 3.96696 9.33338 3.91322L10.6667 3.15322V12.6665C10.6685 12.894 10.7091 13.1194 10.7867 13.3332H3.33338ZM13.3334 12.6665C13.3334 12.8434 13.2631 13.0129 13.1381 13.138C13.0131 13.263 12.8435 13.3332 12.6667 13.3332C12.4899 13.3332 12.3203 13.263 12.1953 13.138C12.0703 13.0129 12 12.8434 12 12.6665V9.33322H13.3334V12.6665ZM8.66671 7.99988H4.66671C4.4899 7.99988 4.32033 8.07012 4.19531 8.19515C4.07028 8.32017 4.00005 8.48974 4.00005 8.66655C4.00005 8.84336 4.07028 9.01293 4.19531 9.13795C4.32033 9.26298 4.4899 9.33322 4.66671 9.33322H8.66671C8.84352 9.33322 9.01309 9.26298 9.13812 9.13795C9.26314 9.01293 9.33338 8.84336 9.33338 8.66655C9.33338 8.48974 9.26314 8.32017 9.13812 8.19515C9.01309 8.07012 8.84352 7.99988 8.66671 7.99988Z" fill="#828282"/>
</svg>
