<svg width="16" height="16" viewBox="0 0 16 16" fill="none" xmlns="http://www.w3.org/2000/svg">
<path d="M8.00004 1.33325C6.6815 1.33325 5.39257 1.72425 4.29624 2.45679C3.19991 3.18933 2.34543 4.23052 1.84085 5.4487C1.33626 6.66687 1.20424 8.00731 1.46148 9.30052C1.71871 10.5937 2.35365 11.7816 3.286 12.714C4.21835 13.6463 5.40624 14.2813 6.69944 14.5385C7.99265 14.7957 9.33309 14.6637 10.5513 14.1591C11.7694 13.6545 12.8106 12.8 13.5432 11.7037C14.2757 10.6074 14.6667 9.31846 14.6667 7.99992C14.6667 7.12444 14.4943 6.25753 14.1592 5.4487C13.8242 4.63986 13.3331 3.90493 12.7141 3.28587C12.095 2.66682 11.3601 2.17575 10.5513 1.84072C9.74243 1.50569 8.87552 1.33325 8.00004 1.33325ZM8.00004 13.3333C6.94521 13.3333 5.91406 13.0205 5.037 12.4344C4.15994 11.8484 3.47635 11.0154 3.07269 10.0409C2.66902 9.06636 2.5634 7.994 2.76919 6.95944C2.97498 5.92487 3.48293 4.97456 4.22881 4.22868C4.97469 3.4828 5.925 2.97485 6.95956 2.76906C7.99413 2.56328 9.06648 2.66889 10.041 3.07256C11.0156 3.47623 11.8485 4.15982 12.4345 5.03688C13.0206 5.91394 13.3334 6.94508 13.3334 7.99992C13.3334 9.41441 12.7715 10.771 11.7713 11.7712C10.7711 12.7713 9.41453 13.3333 8.00004 13.3333ZM9.40004 6.41992L8.66671 6.84659V4.66658C8.66671 4.48977 8.59647 4.3202 8.47145 4.19518C8.34642 4.07016 8.17686 3.99992 8.00004 3.99992C7.82323 3.99992 7.65366 4.07016 7.52864 4.19518C7.40362 4.3202 7.33338 4.48977 7.33338 4.66658V7.99992C7.33338 7.99992 7.33338 7.99992 7.33338 8.03992C7.33024 8.08431 7.33024 8.12886 7.33338 8.17325C7.3437 8.21419 7.35707 8.2543 7.37338 8.29325C7.37338 8.29325 7.37338 8.29325 7.37338 8.33325C7.40522 8.38054 7.44089 8.42514 7.48004 8.46658C7.5339 8.51999 7.59719 8.56293 7.66671 8.59325H7.72004C7.80688 8.63791 7.90247 8.66294 8.00004 8.66658C8.07774 8.66436 8.15445 8.64857 8.22671 8.61992H8.28671H8.33338L10.0667 7.61992C10.2205 7.53151 10.3329 7.38562 10.3792 7.21434C10.4255 7.04305 10.4018 6.86041 10.3134 6.70659C10.225 6.55276 10.0791 6.44035 9.9078 6.39409C9.73651 6.34784 9.55387 6.37151 9.40004 6.45992V6.41992Z" fill="#828282"/>
</svg>
