<svg width="16" height="16" viewBox="0 0 16 16" fill="none" xmlns="http://www.w3.org/2000/svg">
<path d="M11.2267 7.75327C11.4937 7.75658 11.7587 7.70637 12.006 7.60561C12.2533 7.50485 12.478 7.35558 12.6667 7.16661L14.5533 5.27994C14.6775 5.15503 14.7472 4.98607 14.7472 4.80994C14.7472 4.63382 14.6775 4.46485 14.5533 4.33994C14.4913 4.27746 14.4176 4.22786 14.3364 4.19401C14.2551 4.16017 14.168 4.14274 14.08 4.14274C13.992 4.14274 13.9048 4.16017 13.8236 4.19401C13.7424 4.22786 13.6686 4.27746 13.6067 4.33994L11.7 6.21994C11.638 6.28243 11.5643 6.33202 11.483 6.36587C11.4018 6.39971 11.3147 6.41714 11.2267 6.41714C11.1386 6.41714 11.0515 6.39971 10.9703 6.36587C10.889 6.33202 10.8153 6.28243 10.7533 6.21994L13.1133 3.86661C13.1755 3.80445 13.2248 3.73066 13.2584 3.64944C13.2921 3.56823 13.3094 3.48118 13.3094 3.39327C13.3094 3.30537 13.2921 3.21832 13.2584 3.13711C13.2248 3.05589 13.1755 2.9821 13.1133 2.91994C13.0512 2.85778 12.9774 2.80848 12.8962 2.77483C12.8149 2.74119 12.7279 2.72388 12.64 2.72388C12.5521 2.72388 12.465 2.74119 12.3838 2.77483C12.3026 2.80848 12.2288 2.85778 12.1667 2.91994L9.81332 5.27994C9.68916 5.15503 9.61946 4.98607 9.61946 4.80994C9.61946 4.63382 9.68916 4.46485 9.81332 4.33994L11.7 2.45327C11.7621 2.39112 11.8115 2.31732 11.8451 2.23611C11.8787 2.15489 11.8961 2.06785 11.8961 1.97994C11.8961 1.89204 11.8787 1.80499 11.8451 1.72378C11.8115 1.64256 11.7621 1.56877 11.7 1.50661C11.6378 1.44445 11.564 1.39514 11.4828 1.3615C11.4016 1.32786 11.3146 1.31055 11.2267 1.31055C11.1388 1.31055 11.0517 1.32786 10.9705 1.3615C10.8893 1.39514 10.8155 1.44445 10.7533 1.50661L8.86666 3.39327C8.49212 3.76828 8.28175 4.27661 8.28175 4.80661C8.28175 5.33661 8.49212 5.84494 8.86666 6.21994L7.99999 7.07994L2.48666 1.54661L2.41999 1.50661C2.38591 1.47687 2.34775 1.45218 2.30666 1.43327L2.18666 1.38661L2.10666 1.33327H2.05999H1.92666C1.88691 1.32692 1.84641 1.32692 1.80666 1.33327C1.7663 1.34796 1.72816 1.36815 1.69332 1.39327L1.58666 1.45994H1.53999L1.49999 1.52661C1.47178 1.56181 1.44721 1.59978 1.42666 1.63994C1.40713 1.68059 1.39151 1.72301 1.37999 1.76661C1.37999 1.76661 1.37999 1.81327 1.37999 1.83994C1.21822 2.96755 1.32136 4.11734 1.68124 5.19815C2.04113 6.27896 2.64786 7.26107 3.45332 8.06661L5.21333 9.81994L1.60666 13.4199C1.54417 13.4819 1.49458 13.5557 1.46073 13.6369C1.42688 13.7181 1.40946 13.8053 1.40946 13.8933C1.40946 13.9813 1.42688 14.0684 1.46073 14.1497C1.49458 14.2309 1.54417 14.3046 1.60666 14.3666C1.66895 14.4284 1.74283 14.4773 1.82405 14.5105C1.90528 14.5436 1.99225 14.5604 2.07999 14.5599C2.16773 14.5604 2.2547 14.5436 2.33593 14.5105C2.41715 14.4773 2.49103 14.4284 2.55332 14.3666L6.59999 10.3799L8.48666 8.49327L9.81999 7.15994C10.192 7.53594 10.6978 7.74928 11.2267 7.75327ZM6.12666 8.96661L4.37332 7.20661C3.4123 6.23243 2.81056 4.96078 2.66666 3.59994L7.07332 7.99994L6.12666 8.96661ZM10.2867 9.34661C10.1611 9.22019 9.99051 9.14882 9.81235 9.14819C9.63419 9.14757 9.46308 9.21774 9.33666 9.34328C9.21024 9.46881 9.13886 9.63943 9.13824 9.81758C9.13761 9.99574 9.20779 10.1669 9.33332 10.2933L13.5333 14.4933C13.6607 14.6091 13.8279 14.6713 14 14.6666C14.0877 14.6671 14.1747 14.6503 14.2559 14.6171C14.3372 14.5839 14.411 14.5351 14.4733 14.4733C14.5358 14.4113 14.5854 14.3376 14.6193 14.2563C14.6531 14.1751 14.6705 14.0879 14.6705 13.9999C14.6705 13.9119 14.6531 13.8248 14.6193 13.7436C14.5854 13.6623 14.5358 13.5886 14.4733 13.5266L10.2867 9.34661Z" fill="#828282"/>
</svg>
