<svg width="25" height="24" viewBox="0 0 25 24" fill="none" xmlns="http://www.w3.org/2000/svg">
<path d="M22 15C21.9978 14.3997 21.8155 13.8139 21.4768 13.3183C21.1381 12.8227 20.6585 12.4401 20.1 12.22L21.97 5.22001C22.0091 5.07093 22.0131 4.91484 21.9819 4.76392C21.9507 4.61301 21.885 4.47135 21.79 4.35001C21.6929 4.23632 21.5715 4.14585 21.4348 4.08528C21.298 4.02471 21.1495 3.99557 21 4.00001H7.3L6.97 2.74001C6.91263 2.52692 6.78638 2.33879 6.61093 2.20494C6.43547 2.0711 6.22068 1.99904 6 2.00001H4V4.00001H5.23L7.71 13.26C7.7686 13.4782 7.89934 13.6701 8.08092 13.8044C8.26251 13.9388 8.48424 14.0077 8.71 14H19C19.2652 14 19.5196 14.1054 19.7071 14.2929C19.8946 14.4804 20 14.7348 20 15C20 15.2652 19.8946 15.5196 19.7071 15.7071C19.5196 15.8947 19.2652 16 19 16H6C5.73478 16 5.48043 16.1054 5.29289 16.2929C5.10536 16.4804 5 16.7348 5 17C5 17.2652 5.10536 17.5196 5.29289 17.7071C5.48043 17.8947 5.73478 18 6 18H7.18C7.01554 18.4531 6.96269 18.9392 7.02593 19.4171C7.08917 19.895 7.26665 20.3506 7.54332 20.7454C7.81999 21.1401 8.18772 21.4624 8.61535 21.6849C9.04299 21.9074 9.51795 22.0235 10 22.0235C10.4821 22.0235 10.957 21.9074 11.3846 21.6849C11.8123 21.4624 12.18 21.1401 12.4567 20.7454C12.7334 20.3506 12.9108 19.895 12.9741 19.4171C13.0373 18.9392 12.9845 18.4531 12.82 18H15.18C15.0303 18.4126 14.9729 18.853 15.012 19.2902C15.051 19.7274 15.1856 20.1507 15.406 20.5302C15.6265 20.9098 15.9276 21.2363 16.288 21.4868C16.6485 21.7373 17.0595 21.9056 17.4921 21.98C17.9247 22.0543 18.3683 22.0328 18.7917 21.917C19.215 21.8012 19.6078 21.5939 19.9424 21.3097C20.2769 21.0255 20.545 20.6714 20.7277 20.2723C20.9105 19.8732 21.0034 19.4389 21 19C20.9981 18.4834 20.8602 17.9764 20.6 17.53C21.0276 17.2604 21.3802 16.8871 21.6249 16.4448C21.8697 16.0025 21.9987 15.5055 22 15ZM18.09 12H9.5L7.84 6.00001H19.7L18.09 12ZM10 20C9.80222 20 9.60888 19.9414 9.44443 19.8315C9.27998 19.7216 9.15181 19.5654 9.07612 19.3827C9.00043 19.2 8.98063 18.9989 9.01922 18.8049C9.0578 18.6109 9.15304 18.4328 9.29289 18.2929C9.43275 18.153 9.61093 18.0578 9.80491 18.0192C9.99889 17.9806 10.2 18.0004 10.3827 18.0761C10.5654 18.1518 10.7216 18.28 10.8315 18.4444C10.9414 18.6089 11 18.8022 11 19C11 19.2652 10.8946 19.5196 10.7071 19.7071C10.5196 19.8947 10.2652 20 10 20ZM18 20C17.8022 20 17.6089 19.9414 17.4444 19.8315C17.28 19.7216 17.1518 19.5654 17.0761 19.3827C17.0004 19.2 16.9806 18.9989 17.0192 18.8049C17.0578 18.6109 17.153 18.4328 17.2929 18.2929C17.4327 18.153 17.6109 18.0578 17.8049 18.0192C17.9989 17.9806 18.2 18.0004 18.3827 18.0761C18.5654 18.1518 18.7216 18.28 18.8315 18.4444C18.9414 18.6089 19 18.8022 19 19C19 19.2652 18.8946 19.5196 18.7071 19.7071C18.5196 19.8947 18.2652 20 18 20Z" fill="#828282"/>
</svg>
