<svg width="14" height="14" viewBox="0 0 14 14" fill="none" xmlns="http://www.w3.org/2000/svg">
<path d="M12.8333 5.89155C12.8916 5.59988 12.6583 5.24988 12.3666 5.24988L9.04163 4.78322L7.52496 1.74988C7.46663 1.63322 7.40829 1.57488 7.29163 1.51655C6.99996 1.34155 6.64996 1.45822 6.47496 1.74988L5.01663 4.78322L1.69163 5.24988C1.51663 5.24988 1.39996 5.30822 1.34163 5.42488C1.10829 5.65822 1.10829 6.00822 1.34163 6.24155L3.73329 8.57488L3.14996 11.8999C3.14996 12.0165 3.14996 12.1332 3.20829 12.2499C3.38329 12.5415 3.73329 12.6582 4.02496 12.4832L6.99996 10.9082L9.97496 12.4832C10.0333 12.5415 10.15 12.5415 10.2666 12.5415C10.325 12.5415 10.325 12.5415 10.3833 12.5415C10.675 12.4832 10.9083 12.1915 10.85 11.8415L10.2666 8.51655L12.6583 6.18322C12.775 6.12488 12.8333 6.00822 12.8333 5.89155Z" fill="#FFC12E"/>
</svg>
