<svg width="16" height="16" viewBox="0 0 16 16" fill="none" xmlns="http://www.w3.org/2000/svg">
<path d="M0.666626 8.33342V11.6667C0.666626 11.8436 0.736864 12.0131 0.861888 12.1382C0.986912 12.2632 1.15648 12.3334 1.33329 12.3334H1.99996C1.99996 12.8638 2.21067 13.3726 2.58575 13.7476C2.96082 14.1227 3.46953 14.3334 3.99996 14.3334C4.53039 14.3334 5.0391 14.1227 5.41417 13.7476C5.78925 13.3726 5.99996 12.8638 5.99996 12.3334H9.99996C9.99996 12.8638 10.2107 13.3726 10.5857 13.7476C10.9608 14.1227 11.4695 14.3334 12 14.3334C12.5304 14.3334 13.0391 14.1227 13.4142 13.7476C13.7892 13.3726 14 12.8638 14 12.3334H14.6666C14.8434 12.3334 15.013 12.2632 15.138 12.1382C15.2631 12.0131 15.3333 11.8436 15.3333 11.6667V3.66675C15.3333 3.13632 15.1226 2.62761 14.7475 2.25253C14.3724 1.87746 13.8637 1.66675 13.3333 1.66675H7.33329C6.80286 1.66675 6.29415 1.87746 5.91908 2.25253C5.54401 2.62761 5.33329 3.13632 5.33329 3.66675V5.00008H3.99996C3.68947 5.00008 3.38324 5.07237 3.10553 5.21123C2.82782 5.35008 2.58625 5.55169 2.39996 5.80008L0.799959 7.93341C0.78046 7.96239 0.764776 7.99376 0.753293 8.02675L0.713293 8.10008C0.68387 8.17443 0.668063 8.25347 0.666626 8.33342ZM11.3333 12.3334C11.3333 12.2016 11.3724 12.0727 11.4456 11.963C11.5189 11.8534 11.623 11.768 11.7448 11.7175C11.8667 11.667 12.0007 11.6538 12.13 11.6796C12.2593 11.7053 12.3781 11.7688 12.4714 11.862C12.5646 11.9552 12.6281 12.074 12.6538 12.2034C12.6795 12.3327 12.6663 12.4667 12.6159 12.5885C12.5654 12.7104 12.48 12.8145 12.3703 12.8877C12.2607 12.961 12.1318 13.0001 12 13.0001C11.8231 13.0001 11.6536 12.9298 11.5286 12.8048C11.4035 12.6798 11.3333 12.5102 11.3333 12.3334ZM6.66663 3.66675C6.66663 3.48994 6.73686 3.32037 6.86189 3.19534C6.98691 3.07032 7.15648 3.00008 7.33329 3.00008H13.3333C13.5101 3.00008 13.6797 3.07032 13.8047 3.19534C13.9297 3.32037 14 3.48994 14 3.66675V11.0001H13.48C13.2925 10.7938 13.064 10.6291 12.8091 10.5163C12.5543 10.4035 12.2787 10.3453 12 10.3453C11.7213 10.3453 11.4456 10.4035 11.1908 10.5163C10.9359 10.6291 10.7074 10.7938 10.52 11.0001H6.66663V3.66675ZM5.33329 7.66675H2.66663L3.46663 6.60008C3.52872 6.51728 3.60925 6.45008 3.70182 6.4038C3.79439 6.35751 3.89646 6.33342 3.99996 6.33342H5.33329V7.66675ZM3.33329 12.3334C3.33329 12.2016 3.37239 12.0727 3.44565 11.963C3.5189 11.8534 3.62302 11.768 3.74484 11.7175C3.86665 11.667 4.0007 11.6538 4.13002 11.6796C4.25934 11.7053 4.37813 11.7688 4.47136 11.862C4.5646 11.9552 4.62809 12.074 4.65382 12.2034C4.67954 12.3327 4.66634 12.4667 4.61588 12.5885C4.56542 12.7104 4.47997 12.8145 4.37034 12.8877C4.26071 12.961 4.13181 13.0001 3.99996 13.0001C3.82315 13.0001 3.65358 12.9298 3.52855 12.8048C3.40353 12.6798 3.33329 12.5102 3.33329 12.3334ZM1.99996 9.00008H5.33329V10.8534C4.93985 10.5018 4.42338 10.3199 3.89642 10.3474C3.36946 10.3748 2.87471 10.6094 2.51996 11.0001H1.99996V9.00008Z" fill="#828282"/>
</svg>
